<svg width="138" height="35" viewBox="0 0 138 35" fill="none" xmlns="http://www.w3.org/2000/svg">
<path d="M8.34738 31.864C7.23804 31.864 6.38471 31.608 5.78738 31.096C5.21138 30.584 4.92338 30.008 4.92338 29.368C4.92338 28.8133 5.12604 28.3333 5.53138 27.928C5.93671 27.5227 6.53404 27.32 7.32338 27.32C7.60071 27.32 7.92071 27.352 8.28338 27.416C8.66738 27.4587 8.95538 27.4907 9.14738 27.512C9.12604 26.9573 8.99804 26.4347 8.76338 25.944C8.55004 25.4533 8.27271 24.984 7.93138 24.536C7.59004 24.0667 7.27004 23.6613 6.97138 23.32C6.31004 24.5787 5.64871 25.624 4.98738 26.456C4.34738 27.288 3.64338 28.0773 2.87538 28.824C2.49138 29.208 2.08604 29.4 1.65938 29.4C1.31804 29.4 1.04071 29.2827 0.827375 29.048C0.614042 28.792 0.507375 28.4827 0.507375 28.12C0.507375 27.6933 0.656708 27.2987 0.955375 26.936L1.37138 26.424C2.54471 24.9733 3.43004 23.7787 4.02738 22.84C4.39004 22.2213 4.81671 21.4 5.30738 20.376C5.79804 19.3307 6.27804 18.2533 6.74738 17.144C7.15271 16.2053 7.99538 15.736 9.27538 15.736C9.87271 15.736 10.2887 15.7893 10.5234 15.896C10.758 16.0027 10.8754 16.1733 10.8754 16.408C10.8754 16.536 10.8327 16.7387 10.7474 17.016C10.662 17.2933 10.5447 17.5707 10.3954 17.848C10.0114 18.616 9.81938 19.2667 9.81938 19.8C9.81938 20.12 9.92604 20.472 10.1394 20.856C10.374 21.24 10.726 21.72 11.1954 22.296C11.878 23.192 12.39 23.96 12.7314 24.6C13.094 25.2187 13.2754 25.9013 13.2754 26.648C13.2754 26.8613 13.254 27.16 13.2114 27.544C14.2567 27.1387 15.4834 26.0613 16.8914 24.312C17.1474 24.0133 17.4354 23.864 17.7554 23.864C18.0327 23.864 18.246 23.992 18.3954 24.248C18.566 24.504 18.6514 24.856 18.6514 25.304C18.6514 26.1147 18.4487 26.776 18.0434 27.288C16.9767 28.6107 15.9527 29.5173 14.9714 30.008C14.0114 30.4773 12.8167 30.7333 11.3874 30.776C10.534 31.5013 9.52071 31.864 8.34738 31.864ZM31.3236 23.864C31.601 23.864 31.8143 23.992 31.9636 24.248C32.1343 24.504 32.2196 24.856 32.2196 25.304C32.2196 26.1573 32.017 26.8187 31.6116 27.288C30.6943 28.4187 29.6916 29.3467 28.6036 30.072C27.5156 30.7973 26.2676 31.16 24.8596 31.16C20.5076 31.16 18.3316 28.0987 18.3316 21.976C18.3316 21.0373 18.3636 20.088 18.4276 19.128H17.1796C16.5396 19.128 16.1023 19.0107 15.8676 18.776C15.6543 18.5413 15.5476 18.168 15.5476 17.656C15.5476 16.4613 16.0276 15.864 16.9876 15.864H18.8116C19.1743 13.5173 19.729 11.3733 20.4756 9.432C21.2223 7.49067 22.1183 5.944 23.1636 4.792C24.2303 3.64 25.3716 3.064 26.5876 3.064C27.4836 3.064 28.1876 3.45867 28.6996 4.248C29.2116 5.03733 29.4676 6.02933 29.4676 7.224C29.4676 10.5307 28.081 13.4107 25.3076 15.864H28.8916C29.233 15.864 29.4783 15.9387 29.6276 16.088C29.777 16.2373 29.8516 16.5147 29.8516 16.92C29.8516 18.392 28.6463 19.128 26.2356 19.128H22.3316C22.289 20.1947 22.2676 21.0267 22.2676 21.624C22.2676 23.8427 22.5236 25.4 23.0356 26.296C23.569 27.192 24.401 27.64 25.5316 27.64C26.449 27.64 27.2596 27.3627 27.9636 26.808C28.6676 26.2533 29.4996 25.4213 30.4596 24.312C30.7156 24.0133 31.0036 23.864 31.3236 23.864ZM25.7236 6.136C25.4036 6.136 25.041 6.54133 24.6356 7.352C24.2516 8.14133 23.8783 9.25067 23.5156 10.68C23.1743 12.088 22.8863 13.656 22.6516 15.384C23.9103 14.296 24.849 13.08 25.4676 11.736C26.1076 10.3707 26.4276 9.13333 26.4276 8.024C26.4276 6.76533 26.193 6.136 25.7236 6.136ZM46.9341 21.176C47.2115 21.176 47.4248 21.3147 47.5741 21.592C47.7235 21.8693 47.7981 22.2213 47.7981 22.648C47.7981 23.672 47.4888 24.28 46.8701 24.472C45.5901 24.92 44.1821 25.176 42.6461 25.24C42.2408 27.032 41.4408 28.472 40.2461 29.56C39.0515 30.6267 37.6968 31.16 36.1821 31.16C34.9021 31.16 33.8035 30.8507 32.8861 30.232C31.9901 29.6133 31.3075 28.792 30.8381 27.768C30.3688 26.744 30.1341 25.6347 30.1341 24.44C30.1341 22.8187 30.4435 21.3787 31.0621 20.12C31.6808 18.84 32.5341 17.848 33.6221 17.144C34.7101 16.4187 35.9155 16.056 37.2381 16.056C38.8595 16.056 40.1608 16.6213 41.1421 17.752C42.1448 18.8613 42.7315 20.2373 42.9021 21.88C43.9048 21.816 45.0995 21.6027 46.4861 21.24C46.6568 21.1973 46.8061 21.176 46.9341 21.176ZM36.4381 27.768C37.1208 27.768 37.7075 27.4907 38.1981 26.936C38.7101 26.3813 39.0515 25.5813 39.2221 24.536C38.5608 24.088 38.0488 23.5013 37.6861 22.776C37.3448 22.0507 37.1741 21.2827 37.1741 20.472C37.1741 20.1307 37.2061 19.7893 37.2701 19.448H37.1101C36.2568 19.448 35.5421 19.864 34.9661 20.696C34.4115 21.5067 34.1341 22.6587 34.1341 24.152C34.1341 25.3253 34.3581 26.2213 34.8061 26.84C35.2755 27.4587 35.8195 27.768 36.4381 27.768ZM48.3236 31.16C47.513 31.16 46.937 30.7333 46.5956 29.88C46.2756 29.0267 46.1156 27.6613 46.1156 25.784C46.1156 23.0107 46.5103 20.376 47.2996 17.88C47.4916 17.2613 47.801 16.8133 48.2276 16.536C48.6756 16.2373 49.2943 16.088 50.0836 16.088C50.5103 16.088 50.809 16.1413 50.9796 16.248C51.1503 16.3547 51.2356 16.5573 51.2356 16.856C51.2356 17.1973 51.0756 17.9653 50.7556 19.16C50.5423 20.0133 50.3716 20.76 50.2436 21.4C50.1156 22.04 50.009 22.8293 49.9236 23.768C50.6276 21.9333 51.417 20.44 52.2916 19.288C53.1663 18.136 54.0196 17.3147 54.8516 16.824C55.705 16.3333 56.4836 16.088 57.1876 16.088C58.5743 16.088 59.2676 16.7813 59.2676 18.168C59.2676 19 59.033 20.504 58.5636 22.68C58.1583 24.536 57.9556 25.7627 57.9556 26.36C57.9556 27.2133 58.265 27.64 58.8836 27.64C59.3103 27.64 59.8116 27.384 60.3876 26.872C60.985 26.3387 61.7743 25.4853 62.7556 24.312C63.0116 24.0133 63.2996 23.864 63.6196 23.864C63.897 23.864 64.1103 23.992 64.2596 24.248C64.4303 24.504 64.5156 24.856 64.5156 25.304C64.5156 26.1573 64.313 26.8187 63.9076 27.288C62.9903 28.4187 61.9983 29.3467 60.9316 30.072C59.8863 30.7973 58.6916 31.16 57.3476 31.16C56.2596 31.16 55.4383 30.8507 54.8836 30.232C54.329 29.592 54.0516 28.6747 54.0516 27.48C54.0516 26.8827 54.201 25.816 54.4996 24.28C54.777 22.936 54.9156 22.008 54.9156 21.496C54.9156 21.1547 54.7983 20.984 54.5636 20.984C54.2863 20.984 53.8916 21.3467 53.3796 22.072C52.889 22.776 52.377 23.7147 51.8436 24.888C51.3316 26.0613 50.9156 27.2987 50.5956 28.6C50.361 29.6027 50.0836 30.2853 49.7636 30.648C49.465 30.9893 48.985 31.16 48.3236 31.16ZM77.1986 23.864C77.476 23.864 77.6893 23.992 77.8386 24.248C78.0093 24.504 78.0946 24.856 78.0946 25.304C78.0946 26.1573 77.892 26.8187 77.4866 27.288C76.6973 28.248 75.5773 29.1333 74.1266 29.944C72.6973 30.7547 71.1613 31.16 69.5186 31.16C67.2786 31.16 65.54 30.552 64.3026 29.336C63.0653 28.12 62.4466 26.456 62.4466 24.344C62.4466 22.872 62.756 21.5067 63.3746 20.248C63.9933 18.968 64.8466 17.9547 65.9346 17.208C67.044 16.4613 68.292 16.088 69.6786 16.088C70.916 16.088 71.908 16.4613 72.6546 17.208C73.4013 17.9333 73.7746 18.9253 73.7746 20.184C73.7746 21.656 73.2413 22.9253 72.1746 23.992C71.1293 25.0373 69.348 25.8693 66.8306 26.488C67.364 27.4693 68.3773 27.96 69.8706 27.96C70.8306 27.96 71.9186 27.6293 73.1346 26.968C74.372 26.2853 75.4386 25.4 76.3346 24.312C76.5906 24.0133 76.8786 23.864 77.1986 23.864ZM69.1346 19.224C68.3453 19.224 67.6733 19.6827 67.1186 20.6C66.5853 21.5173 66.3186 22.6267 66.3186 23.928V23.992C67.5773 23.6933 68.5693 23.2453 69.2946 22.648C70.02 22.0507 70.3826 21.3573 70.3826 20.568C70.3826 20.1627 70.2653 19.8427 70.0306 19.608C69.8173 19.352 69.5186 19.224 69.1346 19.224ZM101.289 11.928C101.289 13.7413 100.82 15.4053 99.8811 16.92C98.9425 18.4347 97.5771 19.672 95.7851 20.632C93.9931 21.592 91.8598 22.1573 89.3851 22.328L88.0091 30.04C87.4758 33.0053 86.0251 34.488 83.6571 34.488C82.3558 34.488 81.1505 34.104 80.0411 33.336C78.9531 32.568 78.0785 31.3947 77.4171 29.816C76.7558 28.2373 76.4251 26.296 76.4251 23.992C76.4251 19.6613 77.1185 15.992 78.5051 12.984C79.9131 9.95467 81.7905 7.69333 84.1371 6.2C86.5051 4.68533 89.1078 3.928 91.9451 3.928C93.9505 3.928 95.6465 4.28 97.0331 4.984C98.4411 5.688 99.4971 6.648 100.201 7.864C100.926 9.05866 101.289 10.4133 101.289 11.928ZM89.9611 19.032C94.3345 18.4773 96.5211 16.2053 96.5211 12.216C96.5211 10.808 96.0518 9.66667 95.1131 8.792C94.1958 7.896 92.7665 7.448 90.8251 7.448C88.6278 7.448 86.7078 8.14133 85.0651 9.528C83.4438 10.9147 82.1851 12.8453 81.2891 15.32C80.4145 17.7733 79.9771 20.5787 79.9771 23.736C79.9771 25.0587 80.1051 26.232 80.3611 27.256C80.6385 28.28 80.9798 29.08 81.3851 29.656C81.8118 30.2107 82.2171 30.488 82.6011 30.488C83.1345 30.488 83.5398 29.752 83.8171 28.28L84.8731 22.232C84.0411 22.104 83.6785 22.0507 83.7851 22.072C83.1451 21.9653 82.7291 21.7733 82.5371 21.496C82.3451 21.1973 82.2491 20.824 82.2491 20.376C82.2491 19.9067 82.3771 19.5333 82.6331 19.256C82.9105 18.9787 83.2838 18.84 83.7531 18.84C83.9665 18.84 84.1265 18.8507 84.2331 18.872C84.7451 18.9573 85.1398 19.0107 85.4171 19.032C85.6945 17.368 86.0891 15.1387 86.6011 12.344C86.7291 11.6187 87.0171 11.1067 87.4651 10.808C87.9345 10.488 88.4785 10.328 89.0971 10.328C89.8011 10.328 90.3025 10.4667 90.6011 10.744C90.9211 11 91.0811 11.416 91.0811 11.992C91.0811 12.3333 91.0598 12.6107 91.0171 12.824L89.9611 19.032ZM105.525 13.976C104.629 13.976 103.957 13.7733 103.509 13.368C103.061 12.9413 102.837 12.3547 102.837 11.608C102.837 10.8613 103.125 10.2427 103.701 9.752C104.298 9.24 105.034 8.984 105.909 8.984C106.698 8.984 107.338 9.176 107.829 9.56C108.32 9.944 108.565 10.488 108.565 11.192C108.565 12.0453 108.288 12.728 107.733 13.24C107.178 13.7307 106.442 13.976 105.525 13.976ZM105.269 31.16C103.882 31.16 102.869 30.6693 102.229 29.688C101.61 28.7067 101.301 27.4053 101.301 25.784C101.301 24.824 101.418 23.5973 101.653 22.104C101.909 20.5893 102.229 19.1813 102.613 17.88C102.805 17.1973 103.061 16.728 103.381 16.472C103.701 16.216 104.213 16.088 104.917 16.088C106.005 16.088 106.549 16.4507 106.549 17.176C106.549 17.7093 106.346 18.9467 105.941 20.888C105.429 23.2347 105.173 24.824 105.173 25.656C105.173 26.296 105.258 26.7867 105.429 27.128C105.6 27.4693 105.888 27.64 106.293 27.64C106.677 27.64 107.157 27.3733 107.733 26.84C108.309 26.3067 109.077 25.464 110.037 24.312C110.293 24.0133 110.581 23.864 110.901 23.864C111.178 23.864 111.392 23.992 111.541 24.248C111.712 24.504 111.797 24.856 111.797 25.304C111.797 26.1573 111.594 26.8187 111.189 27.288C109.077 29.8693 107.104 31.16 105.269 31.16ZM116.32 31.16C114.229 31.16 112.597 30.5733 111.424 29.4C110.272 28.2053 109.696 26.6373 109.696 24.696C109.696 22.968 110.037 21.4533 110.72 20.152C111.403 18.8507 112.288 17.848 113.376 17.144C114.464 16.44 115.605 16.088 116.8 16.088C117.973 16.088 118.88 16.44 119.52 17.144C120.181 17.8267 120.512 18.712 120.512 19.8C120.512 20.696 120.309 21.4533 119.904 22.072C119.52 22.6907 119.008 23 118.368 23C117.963 23 117.632 22.904 117.376 22.712C117.141 22.52 117.024 22.2533 117.024 21.912C117.024 21.7627 117.045 21.592 117.088 21.4C117.131 21.208 117.163 21.0693 117.184 20.984C117.291 20.664 117.344 20.3653 117.344 20.088C117.344 19.8107 117.269 19.5973 117.12 19.448C116.992 19.2987 116.8 19.224 116.544 19.224C116.053 19.224 115.595 19.448 115.168 19.896C114.741 20.3227 114.4 20.9093 114.144 21.656C113.888 22.4027 113.76 23.224 113.76 24.12C113.76 26.5947 114.837 27.832 116.992 27.832C117.867 27.832 118.805 27.544 119.808 26.968C120.832 26.3707 121.835 25.4853 122.816 24.312C123.072 24.0133 123.36 23.864 123.68 23.864C123.957 23.864 124.171 23.992 124.32 24.248C124.491 24.504 124.576 24.856 124.576 25.304C124.576 26.1147 124.373 26.776 123.968 27.288C122.965 28.5253 121.76 29.4853 120.352 30.168C118.965 30.8293 117.621 31.16 116.32 31.16ZM136.589 27.672C137.464 27.8427 137.901 28.3227 137.901 29.112C137.901 29.6453 137.656 30.1253 137.165 30.552C136.696 30.9573 136.013 31.16 135.117 31.16C133.581 31.16 132.322 30.6907 131.341 29.752C130.381 28.792 129.901 27.544 129.901 26.008C129.901 25.176 130.328 24.5787 131.181 24.216C132.12 23.8107 132.792 23.384 133.197 22.936C133.602 22.4667 133.805 21.9013 133.805 21.24C133.805 20.856 133.72 20.568 133.549 20.376C133.4 20.184 133.208 20.088 132.973 20.088C132.397 20.088 131.757 20.504 131.053 21.336C130.37 22.168 129.73 23.2453 129.133 24.568C128.536 25.8693 128.066 27.2133 127.725 28.6C127.49 29.6027 127.213 30.2853 126.893 30.648C126.594 30.9893 126.114 31.16 125.453 31.16C124.792 31.16 124.301 30.9253 123.981 30.456C123.682 29.9653 123.48 29.2187 123.373 28.216C123.266 27.2133 123.213 25.7413 123.213 23.8C123.213 20.5147 123.544 17.0907 124.205 13.528C124.888 9.96533 125.88 6.97867 127.181 4.568C128.504 2.136 130.082 0.919998 131.917 0.919998C132.898 0.919998 133.688 1.34667 134.285 2.2C134.904 3.032 135.213 4.12 135.213 5.464C135.213 7.61867 134.584 9.85867 133.325 12.184C132.066 14.488 130.018 17.1867 127.181 20.28C127.117 21.3893 127.085 22.5307 127.085 23.704C128.109 21.0373 129.282 19.1067 130.605 17.912C131.928 16.696 133.165 16.088 134.317 16.088C135.384 16.088 136.237 16.4507 136.877 17.176C137.538 17.9013 137.869 18.7973 137.869 19.864C137.869 21.0373 137.57 22.1147 136.973 23.096C136.376 24.0773 135.352 24.952 133.901 25.72C134.029 26.36 134.285 26.808 134.669 27.064C135.074 27.2987 135.714 27.5013 136.589 27.672ZM131.245 4.088C130.861 4.088 130.434 4.64267 129.965 5.752C129.496 6.84 129.037 8.32267 128.589 10.2C128.162 12.056 127.81 14.0827 127.533 16.28C128.856 14.7227 129.944 13.0267 130.797 11.192C131.672 9.35733 132.109 7.69333 132.109 6.2C132.109 5.51733 132.034 4.99467 131.885 4.632C131.736 4.26933 131.522 4.088 131.245 4.088Z" fill="#7C00FE"/>
</svg>
